<svg width="35" height="22" viewBox="0 0 35 22" fill="none" xmlns="http://www.w3.org/2000/svg">
<g clip-path="url(#clip0_1_84)">
<path d="M12 1H0V16H12V1Z" fill="white" style="fill:white;fill-opacity:1;"/>
<path d="M11 2H1V15H11V2Z" fill="#2A2D2D" style="fill:#2A2D2D;fill:color(display-p3 0.1647 0.1765 0.1765);fill-opacity:1;"/>
<path d="M3 4H2V5H3V4Z" fill="#3DC06C" style="fill:#3DC06C;fill:color(display-p3 0.2392 0.7529 0.4235);fill-opacity:1;"/>
<path d="M5 4H4V5H5V4Z" fill="#3DC06C" style="fill:#3DC06C;fill:color(display-p3 0.2392 0.7529 0.4235);fill-opacity:1;"/>
<path d="M7 4H6V5H7V4Z" fill="#3DC06C" style="fill:#3DC06C;fill:color(display-p3 0.2392 0.7529 0.4235);fill-opacity:1;"/>
<path d="M5 6H3V7H5V6Z" fill="#3DC06C" style="fill:#3DC06C;fill:color(display-p3 0.2392 0.7529 0.4235);fill-opacity:1;"/>
<path d="M8 6H6V7H8V6Z" fill="#3DC06C" style="fill:#3DC06C;fill:color(display-p3 0.2392 0.7529 0.4235);fill-opacity:1;"/>
<g clip-path="url(#clip1_1_84)">
<path d="M16.4734 3.10583L4.88229 0L1 14.4889L12.5911 17.5947L16.4734 3.10583Z" fill="white" style="fill:white;fill-opacity:1;"/>
<path d="M15.2487 3.81294L5.58939 1.22474L2.22475 13.7818L11.884 16.37L15.2487 3.81294Z" fill="#2A2D2D" style="fill:#2A2D2D;fill:color(display-p3 0.1647 0.1765 0.1765);fill-opacity:1;"/>
<path d="M7.00361 3.67423L6.03768 3.41542L5.77886 4.38134L6.74479 4.64016L7.00361 3.67423Z" fill="#3DC06C" style="fill:#3DC06C;fill:color(display-p3 0.2392 0.7529 0.4235);fill-opacity:1;"/>
<path d="M8.93546 4.19187L7.96953 3.93305L7.71071 4.89898L8.67664 5.1578L8.93546 4.19187Z" fill="#3DC06C" style="fill:#3DC06C;fill:color(display-p3 0.2392 0.7529 0.4235);fill-opacity:1;"/>
<path d="M10.8673 4.70951L9.90138 4.45069L9.64257 5.41662L10.6085 5.67544L10.8673 4.70951Z" fill="#3DC06C" style="fill:#3DC06C;fill:color(display-p3 0.2392 0.7529 0.4235);fill-opacity:1;"/>
<path d="M8.41782 6.12372L6.48597 5.60609L6.22715 6.57201L8.159 7.08965L8.41782 6.12372Z" fill="#3DC06C" style="fill:#3DC06C;fill:color(display-p3 0.2392 0.7529 0.4235);fill-opacity:1;"/>
<path d="M11.3156 6.90018L9.38375 6.38254L9.12493 7.34847L11.0568 7.86611L11.3156 6.90018Z" fill="#3DC06C" style="fill:#3DC06C;fill:color(display-p3 0.2392 0.7529 0.4235);fill-opacity:1;"/>
</g>
</g>
<mask id="path-15-outside-1_1_84" maskUnits="userSpaceOnUse" x="4" y="9" width="31" height="13" fill="black">
<rect fill="white" x="4" y="9" width="31" height="13"/>
<path d="M9.79883 18H5.95801V17.042H5.48047V16.0811H5.95801V16.5615H6.43848V17.042H6.91895V17.5225H9.31836V17.042H9.79883V15.3604H9.31836V14.8828H8.36035V14.4023H7.39941V13.9219H6.43848V13.4414H5.95801V12.9609H5.48047V11.2822H5.95801V10.8018H6.43848V10.3213H9.79883V10.8018H10.2793V11.7627H9.79883V11.2822H9.31836V10.8018H6.91895V11.2822H6.43848V12.4805H6.91895V12.9609H7.87988V13.4414H8.83789V13.9219H9.79883V14.4023H10.2793V14.8828H10.7598V17.042H10.2793V17.5225H9.79883V18ZM14.123 18H13.1621V16.8018H12.6816V15.6006H12.2012V14.4023H11.7236V13.2012H11.0059V12.7207H16.7627V13.2012H16.042V14.4023H16.5225V15.6006H17.0029V16.8018H17.4834V18H16.5225V16.8018H16.042V15.6006H15.5615V14.4023H15.0811V13.2012H12.6816V14.4023H13.1621V15.6006H13.6426V16.8018H14.123V18ZM18.9219 14.4023H18.4414V13.2012H17.7236V12.7207H19.6426V13.2012H18.9219V14.4023ZM15.0811 15.6006H14.6035V14.4023H15.0811V15.6006ZM18.4414 15.6006H17.9609V14.4023H18.4414V15.6006ZM14.6035 16.8018H14.123V15.6006H14.6035V16.8018ZM17.9609 16.8018H17.4834V15.6006H17.9609V16.8018ZM21.3213 11.2822H20.3604V10.3213H21.3213V11.2822ZM21.8018 18H19.8828V17.5225H20.3604V13.6816H19.8828V13.2012H20.3604V12.7207H20.8408V12.2402H21.3213V17.5225H21.8018V18ZM24.1982 20.8799H22.2793V20.3994H22.7568V13.6816H22.2793V13.2012H22.7568V12.7207H23.2373V12.2402H23.7178V13.2012H24.1982V13.6816H23.7178V17.042H24.1982V17.5225H23.7178V20.3994H24.1982V20.8799ZM26.1172 18H24.1982V17.5225H25.6367V17.042H26.1172V16.0811H26.5977V14.6426H26.1172V13.6816H25.6367V13.2012H24.1982V12.7207H26.1172V13.2012H26.5977V13.6816H27.0781V14.6426H27.5586V16.0811H27.0781V17.042H26.5977V17.5225H26.1172V18ZM32.3574 18H29.958V17.5225H29.4775V17.042H28.9971V16.0811H28.5195V14.6426H28.9971V13.6816H29.4775V14.1621H32.3574V13.6816H31.877V13.2012H29.958V12.7207H32.3574V13.2012H32.8379V13.6816H33.3184V14.6426H29.4775V16.0811H29.958V17.042H30.4385V17.5225H32.3574V18ZM29.958 13.6816H29.4775V13.2012H29.958V13.6816ZM33.3184 17.042H32.8379V16.5615H33.3184V17.042ZM32.8379 17.5225H32.3574V17.042H32.8379V17.5225Z"/>
</mask>
<path d="M9.79883 18H5.95801V17.042H5.48047V16.0811H5.95801V16.5615H6.43848V17.042H6.91895V17.5225H9.31836V17.042H9.79883V15.3604H9.31836V14.8828H8.36035V14.4023H7.39941V13.9219H6.43848V13.4414H5.95801V12.9609H5.48047V11.2822H5.95801V10.8018H6.43848V10.3213H9.79883V10.8018H10.2793V11.7627H9.79883V11.2822H9.31836V10.8018H6.91895V11.2822H6.43848V12.4805H6.91895V12.9609H7.87988V13.4414H8.83789V13.9219H9.79883V14.4023H10.2793V14.8828H10.7598V17.042H10.2793V17.5225H9.79883V18ZM14.123 18H13.1621V16.8018H12.6816V15.6006H12.2012V14.4023H11.7236V13.2012H11.0059V12.7207H16.7627V13.2012H16.042V14.4023H16.5225V15.6006H17.0029V16.8018H17.4834V18H16.5225V16.8018H16.042V15.6006H15.5615V14.4023H15.0811V13.2012H12.6816V14.4023H13.1621V15.6006H13.6426V16.8018H14.123V18ZM18.9219 14.4023H18.4414V13.2012H17.7236V12.7207H19.6426V13.2012H18.9219V14.4023ZM15.0811 15.6006H14.6035V14.4023H15.0811V15.6006ZM18.4414 15.6006H17.9609V14.4023H18.4414V15.6006ZM14.6035 16.8018H14.123V15.6006H14.6035V16.8018ZM17.9609 16.8018H17.4834V15.6006H17.9609V16.8018ZM21.3213 11.2822H20.3604V10.3213H21.3213V11.2822ZM21.8018 18H19.8828V17.5225H20.3604V13.6816H19.8828V13.2012H20.3604V12.7207H20.8408V12.2402H21.3213V17.5225H21.8018V18ZM24.1982 20.8799H22.2793V20.3994H22.7568V13.6816H22.2793V13.2012H22.7568V12.7207H23.2373V12.2402H23.7178V13.2012H24.1982V13.6816H23.7178V17.042H24.1982V17.5225H23.7178V20.3994H24.1982V20.8799ZM26.1172 18H24.1982V17.5225H25.6367V17.042H26.1172V16.0811H26.5977V14.6426H26.1172V13.6816H25.6367V13.2012H24.1982V12.7207H26.1172V13.2012H26.5977V13.6816H27.0781V14.6426H27.5586V16.0811H27.0781V17.042H26.5977V17.5225H26.1172V18ZM32.3574 18H29.958V17.5225H29.4775V17.042H28.9971V16.0811H28.5195V14.6426H28.9971V13.6816H29.4775V14.1621H32.3574V13.6816H31.877V13.2012H29.958V12.7207H32.3574V13.2012H32.8379V13.6816H33.3184V14.6426H29.4775V16.0811H29.958V17.042H30.4385V17.5225H32.3574V18ZM29.958 13.6816H29.4775V13.2012H29.958V13.6816ZM33.3184 17.042H32.8379V16.5615H33.3184V17.042ZM32.8379 17.5225H32.3574V17.042H32.8379V17.5225Z" fill="white" style="fill:white;fill-opacity:1;"/>
<path d="M9.79883 18V19H10.7988V18H9.79883ZM5.95801 18H4.95801V19H5.95801V18ZM5.95801 17.042H6.95801V16.042H5.95801V17.042ZM5.48047 17.042H4.48047V18.042H5.48047V17.042ZM5.48047 16.0811V15.0811H4.48047V16.0811H5.48047ZM5.95801 16.0811H6.95801V15.0811H5.95801V16.0811ZM5.95801 16.5615H4.95801V17.5615H5.95801V16.5615ZM6.43848 16.5615H7.43848V15.5615H6.43848V16.5615ZM6.43848 17.042H5.43848V18.042H6.43848V17.042ZM6.91895 17.042H7.91895V16.042H6.91895V17.042ZM6.91895 17.5225H5.91895V18.5225H6.91895V17.5225ZM9.31836 17.5225V18.5225H10.3184V17.5225H9.31836ZM9.31836 17.042V16.042H8.31836V17.042H9.31836ZM9.79883 17.042V18.042H10.7988V17.042H9.79883ZM9.79883 15.3604H10.7988V14.3604H9.79883V15.3604ZM9.31836 15.3604H8.31836V16.3604H9.31836V15.3604ZM9.31836 14.8828H10.3184V13.8828H9.31836V14.8828ZM8.36035 14.8828H7.36035V15.8828H8.36035V14.8828ZM8.36035 14.4023H9.36035V13.4023H8.36035V14.4023ZM7.39941 14.4023H6.39941V15.4023H7.39941V14.4023ZM7.39941 13.9219H8.39941V12.9219H7.39941V13.9219ZM6.43848 13.9219H5.43848V14.9219H6.43848V13.9219ZM6.43848 13.4414H7.43848V12.4414H6.43848V13.4414ZM5.95801 13.4414H4.95801V14.4414H5.95801V13.4414ZM5.95801 12.9609H6.95801V11.9609H5.95801V12.9609ZM5.48047 12.9609H4.48047V13.9609H5.48047V12.9609ZM5.48047 11.2822V10.2822H4.48047V11.2822H5.48047ZM5.95801 11.2822V12.2822H6.95801V11.2822H5.95801ZM5.95801 10.8018V9.80176H4.95801V10.8018H5.95801ZM6.43848 10.8018V11.8018H7.43848V10.8018H6.43848ZM6.43848 10.3213V9.32129H5.43848V10.3213H6.43848ZM9.79883 10.3213H10.7988V9.32129H9.79883V10.3213ZM9.79883 10.8018H8.79883V11.8018H9.79883V10.8018ZM10.2793 10.8018H11.2793V9.80176H10.2793V10.8018ZM10.2793 11.7627V12.7627H11.2793V11.7627H10.2793ZM9.79883 11.7627H8.79883V12.7627H9.79883V11.7627ZM9.79883 11.2822H10.7988V10.2822H9.79883V11.2822ZM9.31836 11.2822H8.31836V12.2822H9.31836V11.2822ZM9.31836 10.8018H10.3184V9.80176H9.31836V10.8018ZM6.91895 10.8018V9.80176H5.91895V10.8018H6.91895ZM6.91895 11.2822V12.2822H7.91895V11.2822H6.91895ZM6.43848 11.2822V10.2822H5.43848V11.2822H6.43848ZM6.43848 12.4805H5.43848V13.4805H6.43848V12.4805ZM6.91895 12.4805H7.91895V11.4805H6.91895V12.4805ZM6.91895 12.9609H5.91895V13.9609H6.91895V12.9609ZM7.87988 12.9609H8.87988V11.9609H7.87988V12.9609ZM7.87988 13.4414H6.87988V14.4414H7.87988V13.4414ZM8.83789 13.4414H9.83789V12.4414H8.83789V13.4414ZM8.83789 13.9219H7.83789V14.9219H8.83789V13.9219ZM9.79883 13.9219H10.7988V12.9219H9.79883V13.9219ZM9.79883 14.4023H8.79883V15.4023H9.79883V14.4023ZM10.2793 14.4023H11.2793V13.4023H10.2793V14.4023ZM10.2793 14.8828H9.2793V15.8828H10.2793V14.8828ZM10.7598 14.8828H11.7598V13.8828H10.7598V14.8828ZM10.7598 17.042V18.042H11.7598V17.042H10.7598ZM10.2793 17.042V16.042H9.2793V17.042H10.2793ZM10.2793 17.5225V18.5225H11.2793V17.5225H10.2793ZM9.79883 17.5225V16.5225H8.79883V17.5225H9.79883ZM9.79883 18V17H5.95801V18V19H9.79883V18ZM5.95801 18H6.95801V17.042H5.95801H4.95801V18H5.95801ZM5.95801 17.042V16.042H5.48047V17.042V18.042H5.95801V17.042ZM5.48047 17.042H6.48047V16.0811H5.48047H4.48047V17.042H5.48047ZM5.48047 16.0811V17.0811H5.95801V16.0811V15.0811H5.48047V16.0811ZM5.95801 16.0811H4.95801V16.5615H5.95801H6.95801V16.0811H5.95801ZM5.95801 16.5615V17.5615H6.43848V16.5615V15.5615H5.95801V16.5615ZM6.43848 16.5615H5.43848V17.042H6.43848H7.43848V16.5615H6.43848ZM6.43848 17.042V18.042H6.91895V17.042V16.042H6.43848V17.042ZM6.91895 17.042H5.91895V17.5225H6.91895H7.91895V17.042H6.91895ZM6.91895 17.5225V18.5225H9.31836V17.5225V16.5225H6.91895V17.5225ZM9.31836 17.5225H10.3184V17.042H9.31836H8.31836V17.5225H9.31836ZM9.31836 17.042V18.042H9.79883V17.042V16.042H9.31836V17.042ZM9.79883 17.042H10.7988V15.3604H9.79883H8.79883V17.042H9.79883ZM9.79883 15.3604V14.3604H9.31836V15.3604V16.3604H9.79883V15.3604ZM9.31836 15.3604H10.3184V14.8828H9.31836H8.31836V15.3604H9.31836ZM9.31836 14.8828V13.8828H8.36035V14.8828V15.8828H9.31836V14.8828ZM8.36035 14.8828H9.36035V14.4023H8.36035H7.36035V14.8828H8.36035ZM8.36035 14.4023V13.4023H7.39941V14.4023V15.4023H8.36035V14.4023ZM7.39941 14.4023H8.39941V13.9219H7.39941H6.39941V14.4023H7.39941ZM7.39941 13.9219V12.9219H6.43848V13.9219V14.9219H7.39941V13.9219ZM6.43848 13.9219H7.43848V13.4414H6.43848H5.43848V13.9219H6.43848ZM6.43848 13.4414V12.4414H5.95801V13.4414V14.4414H6.43848V13.4414ZM5.95801 13.4414H6.95801V12.9609H5.95801H4.95801V13.4414H5.95801ZM5.95801 12.9609V11.9609H5.48047V12.9609V13.9609H5.95801V12.9609ZM5.48047 12.9609H6.48047V11.2822H5.48047H4.48047V12.9609H5.48047ZM5.48047 11.2822V12.2822H5.95801V11.2822V10.2822H5.48047V11.2822ZM5.95801 11.2822H6.95801V10.8018H5.95801H4.95801V11.2822H5.95801ZM5.95801 10.8018V11.8018H6.43848V10.8018V9.80176H5.95801V10.8018ZM6.43848 10.8018H7.43848V10.3213H6.43848H5.43848V10.8018H6.43848ZM6.43848 10.3213V11.3213H9.79883V10.3213V9.32129H6.43848V10.3213ZM9.79883 10.3213H8.79883V10.8018H9.79883H10.7988V10.3213H9.79883ZM9.79883 10.8018V11.8018H10.2793V10.8018V9.80176H9.79883V10.8018ZM10.2793 10.8018H9.2793V11.7627H10.2793H11.2793V10.8018H10.2793ZM10.2793 11.7627V10.7627H9.79883V11.7627V12.7627H10.2793V11.7627ZM9.79883 11.7627H10.7988V11.2822H9.79883H8.79883V11.7627H9.79883ZM9.79883 11.2822V10.2822H9.31836V11.2822V12.2822H9.79883V11.2822ZM9.31836 11.2822H10.3184V10.8018H9.31836H8.31836V11.2822H9.31836ZM9.31836 10.8018V9.80176H6.91895V10.8018V11.8018H9.31836V10.8018ZM6.91895 10.8018H5.91895V11.2822H6.91895H7.91895V10.8018H6.91895ZM6.91895 11.2822V10.2822H6.43848V11.2822V12.2822H6.91895V11.2822ZM6.43848 11.2822H5.43848V12.4805H6.43848H7.43848V11.2822H6.43848ZM6.43848 12.4805V13.4805H6.91895V12.4805V11.4805H6.43848V12.4805ZM6.91895 12.4805H5.91895V12.9609H6.91895H7.91895V12.4805H6.91895ZM6.91895 12.9609V13.9609H7.87988V12.9609V11.9609H6.91895V12.9609ZM7.87988 12.9609H6.87988V13.4414H7.87988H8.87988V12.9609H7.87988ZM7.87988 13.4414V14.4414H8.83789V13.4414V12.4414H7.87988V13.4414ZM8.83789 13.4414H7.83789V13.9219H8.83789H9.83789V13.4414H8.83789ZM8.83789 13.9219V14.9219H9.79883V13.9219V12.9219H8.83789V13.9219ZM9.79883 13.9219H8.79883V14.4023H9.79883H10.7988V13.9219H9.79883ZM9.79883 14.4023V15.4023H10.2793V14.4023V13.4023H9.79883V14.4023ZM10.2793 14.4023H9.2793V14.8828H10.2793H11.2793V14.4023H10.2793ZM10.2793 14.8828V15.8828H10.7598V14.8828V13.8828H10.2793V14.8828ZM10.7598 14.8828H9.75977V17.042H10.7598H11.7598V14.8828H10.7598ZM10.7598 17.042V16.042H10.2793V17.042V18.042H10.7598V17.042ZM10.2793 17.042H9.2793V17.5225H10.2793H11.2793V17.042H10.2793ZM10.2793 17.5225V16.5225H9.79883V17.5225V18.5225H10.2793V17.5225ZM9.79883 17.5225H8.79883V18H9.79883H10.7988V17.5225H9.79883ZM14.123 18V19H15.123V18H14.123ZM13.1621 18H12.1621V19H13.1621V18ZM13.1621 16.8018H14.1621V15.8018H13.1621V16.8018ZM12.6816 16.8018H11.6816V17.8018H12.6816V16.8018ZM12.6816 15.6006H13.6816V14.6006H12.6816V15.6006ZM12.2012 15.6006H11.2012V16.6006H12.2012V15.6006ZM12.2012 14.4023H13.2012V13.4023H12.2012V14.4023ZM11.7236 14.4023H10.7236V15.4023H11.7236V14.4023ZM11.7236 13.2012H12.7236V12.2012H11.7236V13.2012ZM11.0059 13.2012H10.0059V14.2012H11.0059V13.2012ZM11.0059 12.7207V11.7207H10.0059V12.7207H11.0059ZM16.7627 12.7207H17.7627V11.7207H16.7627V12.7207ZM16.7627 13.2012V14.2012H17.7627V13.2012H16.7627ZM16.042 13.2012V12.2012H15.042V13.2012H16.042ZM16.042 14.4023H15.042V15.4023H16.042V14.4023ZM16.5225 14.4023H17.5225V13.4023H16.5225V14.4023ZM16.5225 15.6006H15.5225V16.6006H16.5225V15.6006ZM17.0029 15.6006H18.0029V14.6006H17.0029V15.6006ZM17.0029 16.8018H16.0029V17.8018H17.0029V16.8018ZM17.4834 16.8018H18.4834V15.8018H17.4834V16.8018ZM17.4834 18V19H18.4834V18H17.4834ZM16.5225 18H15.5225V19H16.5225V18ZM16.5225 16.8018H17.5225V15.8018H16.5225V16.8018ZM16.042 16.8018H15.042V17.8018H16.042V16.8018ZM16.042 15.6006H17.042V14.6006H16.042V15.6006ZM15.5615 15.6006H14.5615V16.6006H15.5615V15.6006ZM15.5615 14.4023H16.5615V13.4023H15.5615V14.4023ZM15.0811 14.4023H14.0811V15.4023H15.0811V14.4023ZM15.0811 13.2012H16.0811V12.2012H15.0811V13.2012ZM12.6816 13.2012V12.2012H11.6816V13.2012H12.6816ZM12.6816 14.4023H11.6816V15.4023H12.6816V14.4023ZM13.1621 14.4023H14.1621V13.4023H13.1621V14.4023ZM13.1621 15.6006H12.1621V16.6006H13.1621V15.6006ZM13.6426 15.6006H14.6426V14.6006H13.6426V15.6006ZM13.6426 16.8018H12.6426V17.8018H13.6426V16.8018ZM14.123 16.8018H15.123V15.8018H14.123V16.8018ZM18.9219 14.4023V15.4023H19.9219V14.4023H18.9219ZM18.4414 14.4023H17.4414V15.4023H18.4414V14.4023ZM18.4414 13.2012H19.4414V12.2012H18.4414V13.2012ZM17.7236 13.2012H16.7236V14.2012H17.7236V13.2012ZM17.7236 12.7207V11.7207H16.7236V12.7207H17.7236ZM19.6426 12.7207H20.6426V11.7207H19.6426V12.7207ZM19.6426 13.2012V14.2012H20.6426V13.2012H19.6426ZM18.9219 13.2012V12.2012H17.9219V13.2012H18.9219ZM15.0811 15.6006V16.6006H16.0811V15.6006H15.0811ZM14.6035 15.6006H13.6035V16.6006H14.6035V15.6006ZM14.6035 14.4023V13.4023H13.6035V14.4023H14.6035ZM15.0811 14.4023H16.0811V13.4023H15.0811V14.4023ZM18.4414 15.6006V16.6006H19.4414V15.6006H18.4414ZM17.9609 15.6006H16.9609V16.6006H17.9609V15.6006ZM17.9609 14.4023V13.4023H16.9609V14.4023H17.9609ZM18.4414 14.4023H19.4414V13.4023H18.4414V14.4023ZM14.6035 16.8018V17.8018H15.6035V16.8018H14.6035ZM14.123 16.8018H13.123V17.8018H14.123V16.8018ZM14.123 15.6006V14.6006H13.123V15.6006H14.123ZM14.6035 15.6006H15.6035V14.6006H14.6035V15.6006ZM17.9609 16.8018V17.8018H18.9609V16.8018H17.9609ZM17.4834 16.8018H16.4834V17.8018H17.4834V16.8018ZM17.4834 15.6006V14.6006H16.4834V15.6006H17.4834ZM17.9609 15.6006H18.9609V14.6006H17.9609V15.6006ZM14.123 18V17H13.1621V18V19H14.123V18ZM13.1621 18H14.1621V16.8018H13.1621H12.1621V18H13.1621ZM13.1621 16.8018V15.8018H12.6816V16.8018V17.8018H13.1621V16.8018ZM12.6816 16.8018H13.6816V15.6006H12.6816H11.6816V16.8018H12.6816ZM12.6816 15.6006V14.6006H12.2012V15.6006V16.6006H12.6816V15.6006ZM12.2012 15.6006H13.2012V14.4023H12.2012H11.2012V15.6006H12.2012ZM12.2012 14.4023V13.4023H11.7236V14.4023V15.4023H12.2012V14.4023ZM11.7236 14.4023H12.7236V13.2012H11.7236H10.7236V14.4023H11.7236ZM11.7236 13.2012V12.2012H11.0059V13.2012V14.2012H11.7236V13.2012ZM11.0059 13.2012H12.0059V12.7207H11.0059H10.0059V13.2012H11.0059ZM11.0059 12.7207V13.7207H16.7627V12.7207V11.7207H11.0059V12.7207ZM16.7627 12.7207H15.7627V13.2012H16.7627H17.7627V12.7207H16.7627ZM16.7627 13.2012V12.2012H16.042V13.2012V14.2012H16.7627V13.2012ZM16.042 13.2012H15.042V14.4023H16.042H17.042V13.2012H16.042ZM16.042 14.4023V15.4023H16.5225V14.4023V13.4023H16.042V14.4023ZM16.5225 14.4023H15.5225V15.6006H16.5225H17.5225V14.4023H16.5225ZM16.5225 15.6006V16.6006H17.0029V15.6006V14.6006H16.5225V15.6006ZM17.0029 15.6006H16.0029V16.8018H17.0029H18.0029V15.6006H17.0029ZM17.0029 16.8018V17.8018H17.4834V16.8018V15.8018H17.0029V16.8018ZM17.4834 16.8018H16.4834V18H17.4834H18.4834V16.8018H17.4834ZM17.4834 18V17H16.5225V18V19H17.4834V18ZM16.5225 18H17.5225V16.8018H16.5225H15.5225V18H16.5225ZM16.5225 16.8018V15.8018H16.042V16.8018V17.8018H16.5225V16.8018ZM16.042 16.8018H17.042V15.6006H16.042H15.042V16.8018H16.042ZM16.042 15.6006V14.6006H15.5615V15.6006V16.6006H16.042V15.6006ZM15.5615 15.6006H16.5615V14.4023H15.5615H14.5615V15.6006H15.5615ZM15.5615 14.4023V13.4023H15.0811V14.4023V15.4023H15.5615V14.4023ZM15.0811 14.4023H16.0811V13.2012H15.0811H14.0811V14.4023H15.0811ZM15.0811 13.2012V12.2012H12.6816V13.2012V14.2012H15.0811V13.2012ZM12.6816 13.2012H11.6816V14.4023H12.6816H13.6816V13.2012H12.6816ZM12.6816 14.4023V15.4023H13.1621V14.4023V13.4023H12.6816V14.4023ZM13.1621 14.4023H12.1621V15.6006H13.1621H14.1621V14.4023H13.1621ZM13.1621 15.6006V16.6006H13.6426V15.6006V14.6006H13.1621V15.6006ZM13.6426 15.6006H12.6426V16.8018H13.6426H14.6426V15.6006H13.6426ZM13.6426 16.8018V17.8018H14.123V16.8018V15.8018H13.6426V16.8018ZM14.123 16.8018H13.123V18H14.123H15.123V16.8018H14.123ZM18.9219 14.4023V13.4023H18.4414V14.4023V15.4023H18.9219V14.4023ZM18.4414 14.4023H19.4414V13.2012H18.4414H17.4414V14.4023H18.4414ZM18.4414 13.2012V12.2012H17.7236V13.2012V14.2012H18.4414V13.2012ZM17.7236 13.2012H18.7236V12.7207H17.7236H16.7236V13.2012H17.7236ZM17.7236 12.7207V13.7207H19.6426V12.7207V11.7207H17.7236V12.7207ZM19.6426 12.7207H18.6426V13.2012H19.6426H20.6426V12.7207H19.6426ZM19.6426 13.2012V12.2012H18.9219V13.2012V14.2012H19.6426V13.2012ZM18.9219 13.2012H17.9219V14.4023H18.9219H19.9219V13.2012H18.9219ZM15.0811 15.6006V14.6006H14.6035V15.6006V16.6006H15.0811V15.6006ZM14.6035 15.6006H15.6035V14.4023H14.6035H13.6035V15.6006H14.6035ZM14.6035 14.4023V15.4023H15.0811V14.4023V13.4023H14.6035V14.4023ZM15.0811 14.4023H14.0811V15.6006H15.0811H16.0811V14.4023H15.0811ZM18.4414 15.6006V14.6006H17.9609V15.6006V16.6006H18.4414V15.6006ZM17.9609 15.6006H18.9609V14.4023H17.9609H16.9609V15.6006H17.9609ZM17.9609 14.4023V15.4023H18.4414V14.4023V13.4023H17.9609V14.4023ZM18.4414 14.4023H17.4414V15.6006H18.4414H19.4414V14.4023H18.4414ZM14.6035 16.8018V15.8018H14.123V16.8018V17.8018H14.6035V16.8018ZM14.123 16.8018H15.123V15.6006H14.123H13.123V16.8018H14.123ZM14.123 15.6006V16.6006H14.6035V15.6006V14.6006H14.123V15.6006ZM14.6035 15.6006H13.6035V16.8018H14.6035H15.6035V15.6006H14.6035ZM17.9609 16.8018V15.8018H17.4834V16.8018V17.8018H17.9609V16.8018ZM17.4834 16.8018H18.4834V15.6006H17.4834H16.4834V16.8018H17.4834ZM17.4834 15.6006V16.6006H17.9609V15.6006V14.6006H17.4834V15.6006ZM17.9609 15.6006H16.9609V16.8018H17.9609H18.9609V15.6006H17.9609ZM21.3213 11.2822V12.2822H22.3213V11.2822H21.3213ZM20.3604 11.2822H19.3604V12.2822H20.3604V11.2822ZM20.3604 10.3213V9.32129H19.3604V10.3213H20.3604ZM21.3213 10.3213H22.3213V9.32129H21.3213V10.3213ZM21.8018 18V19H22.8018V18H21.8018ZM19.8828 18H18.8828V19H19.8828V18ZM19.8828 17.5225V16.5225H18.8828V17.5225H19.8828ZM20.3604 17.5225V18.5225H21.3604V17.5225H20.3604ZM20.3604 13.6816H21.3604V12.6816H20.3604V13.6816ZM19.8828 13.6816H18.8828V14.6816H19.8828V13.6816ZM19.8828 13.2012V12.2012H18.8828V13.2012H19.8828ZM20.3604 13.2012V14.2012H21.3604V13.2012H20.3604ZM20.3604 12.7207V11.7207H19.3604V12.7207H20.3604ZM20.8408 12.7207V13.7207H21.8408V12.7207H20.8408ZM20.8408 12.2402V11.2402H19.8408V12.2402H20.8408ZM21.3213 12.2402H22.3213V11.2402H21.3213V12.2402ZM21.3213 17.5225H20.3213V18.5225H21.3213V17.5225ZM21.8018 17.5225H22.8018V16.5225H21.8018V17.5225ZM21.3213 11.2822V10.2822H20.3604V11.2822V12.2822H21.3213V11.2822ZM20.3604 11.2822H21.3604V10.3213H20.3604H19.3604V11.2822H20.3604ZM20.3604 10.3213V11.3213H21.3213V10.3213V9.32129H20.3604V10.3213ZM21.3213 10.3213H20.3213V11.2822H21.3213H22.3213V10.3213H21.3213ZM21.8018 18V17H19.8828V18V19H21.8018V18ZM19.8828 18H20.8828V17.5225H19.8828H18.8828V18H19.8828ZM19.8828 17.5225V18.5225H20.3604V17.5225V16.5225H19.8828V17.5225ZM20.3604 17.5225H21.3604V13.6816H20.3604H19.3604V17.5225H20.3604ZM20.3604 13.6816V12.6816H19.8828V13.6816V14.6816H20.3604V13.6816ZM19.8828 13.6816H20.8828V13.2012H19.8828H18.8828V13.6816H19.8828ZM19.8828 13.2012V14.2012H20.3604V13.2012V12.2012H19.8828V13.2012ZM20.3604 13.2012H21.3604V12.7207H20.3604H19.3604V13.2012H20.3604ZM20.3604 12.7207V13.7207H20.8408V12.7207V11.7207H20.3604V12.7207ZM20.8408 12.7207H21.8408V12.2402H20.8408H19.8408V12.7207H20.8408ZM20.8408 12.2402V13.2402H21.3213V12.2402V11.2402H20.8408V12.2402ZM21.3213 12.2402H20.3213V17.5225H21.3213H22.3213V12.2402H21.3213ZM21.3213 17.5225V18.5225H21.8018V17.5225V16.5225H21.3213V17.5225ZM21.8018 17.5225H20.8018V18H21.8018H22.8018V17.5225H21.8018ZM24.1982 20.8799V21.8799H25.1982V20.8799H24.1982ZM22.2793 20.8799H21.2793V21.8799H22.2793V20.8799ZM22.2793 20.3994V19.3994H21.2793V20.3994H22.2793ZM22.7568 20.3994V21.3994H23.7568V20.3994H22.7568ZM22.7568 13.6816H23.7568V12.6816H22.7568V13.6816ZM22.2793 13.6816H21.2793V14.6816H22.2793V13.6816ZM22.2793 13.2012V12.2012H21.2793V13.2012H22.2793ZM22.7568 13.2012V14.2012H23.7568V13.2012H22.7568ZM22.7568 12.7207V11.7207H21.7568V12.7207H22.7568ZM23.2373 12.7207V13.7207H24.2373V12.7207H23.2373ZM23.2373 12.2402V11.2402H22.2373V12.2402H23.2373ZM23.7178 12.2402H24.7178V11.2402H23.7178V12.2402ZM23.7178 13.2012H22.7178V14.2012H23.7178V13.2012ZM24.1982 13.2012H25.1982V12.2012H24.1982V13.2012ZM24.1982 13.6816V14.6816H25.1982V13.6816H24.1982ZM23.7178 13.6816V12.6816H22.7178V13.6816H23.7178ZM23.7178 17.042H22.7178V18.042H23.7178V17.042ZM24.1982 17.042H25.1982V16.042H24.1982V17.042ZM24.1982 17.5225V18.5225H25.1982V17.5225H24.1982ZM23.7178 17.5225V16.5225H22.7178V17.5225H23.7178ZM23.7178 20.3994H22.7178V21.3994H23.7178V20.3994ZM24.1982 20.3994H25.1982V19.3994H24.1982V20.3994ZM26.1172 18V19H27.1172V18H26.1172ZM24.1982 18H23.1982V19H24.1982V18ZM24.1982 17.5225V16.5225H23.1982V17.5225H24.1982ZM25.6367 17.5225V18.5225H26.6367V17.5225H25.6367ZM25.6367 17.042V16.042H24.6367V17.042H25.6367ZM26.1172 17.042V18.042H27.1172V17.042H26.1172ZM26.1172 16.0811V15.0811H25.1172V16.0811H26.1172ZM26.5977 16.0811V17.0811H27.5977V16.0811H26.5977ZM26.5977 14.6426H27.5977V13.6426H26.5977V14.6426ZM26.1172 14.6426H25.1172V15.6426H26.1172V14.6426ZM26.1172 13.6816H27.1172V12.6816H26.1172V13.6816ZM25.6367 13.6816H24.6367V14.6816H25.6367V13.6816ZM25.6367 13.2012H26.6367V12.2012H25.6367V13.2012ZM24.1982 13.2012H23.1982V14.2012H24.1982V13.2012ZM24.1982 12.7207V11.7207H23.1982V12.7207H24.1982ZM26.1172 12.7207H27.1172V11.7207H26.1172V12.7207ZM26.1172 13.2012H25.1172V14.2012H26.1172V13.2012ZM26.5977 13.2012H27.5977V12.2012H26.5977V13.2012ZM26.5977 13.6816H25.5977V14.6816H26.5977V13.6816ZM27.0781 13.6816H28.0781V12.6816H27.0781V13.6816ZM27.0781 14.6426H26.0781V15.6426H27.0781V14.6426ZM27.5586 14.6426H28.5586V13.6426H27.5586V14.6426ZM27.5586 16.0811V17.0811H28.5586V16.0811H27.5586ZM27.0781 16.0811V15.0811H26.0781V16.0811H27.0781ZM27.0781 17.042V18.042H28.0781V17.042H27.0781ZM26.5977 17.042V16.042H25.5977V17.042H26.5977ZM26.5977 17.5225V18.5225H27.5977V17.5225H26.5977ZM26.1172 17.5225V16.5225H25.1172V17.5225H26.1172ZM24.1982 20.8799V19.8799H22.2793V20.8799V21.8799H24.1982V20.8799ZM22.2793 20.8799H23.2793V20.3994H22.2793H21.2793V20.8799H22.2793ZM22.2793 20.3994V21.3994H22.7568V20.3994V19.3994H22.2793V20.3994ZM22.7568 20.3994H23.7568V13.6816H22.7568H21.7568V20.3994H22.7568ZM22.7568 13.6816V12.6816H22.2793V13.6816V14.6816H22.7568V13.6816ZM22.2793 13.6816H23.2793V13.2012H22.2793H21.2793V13.6816H22.2793ZM22.2793 13.2012V14.2012H22.7568V13.2012V12.2012H22.2793V13.2012ZM22.7568 13.2012H23.7568V12.7207H22.7568H21.7568V13.2012H22.7568ZM22.7568 12.7207V13.7207H23.2373V12.7207V11.7207H22.7568V12.7207ZM23.2373 12.7207H24.2373V12.2402H23.2373H22.2373V12.7207H23.2373ZM23.2373 12.2402V13.2402H23.7178V12.2402V11.2402H23.2373V12.2402ZM23.7178 12.2402H22.7178V13.2012H23.7178H24.7178V12.2402H23.7178ZM23.7178 13.2012V14.2012H24.1982V13.2012V12.2012H23.7178V13.2012ZM24.1982 13.2012H23.1982V13.6816H24.1982H25.1982V13.2012H24.1982ZM24.1982 13.6816V12.6816H23.7178V13.6816V14.6816H24.1982V13.6816ZM23.7178 13.6816H22.7178V17.042H23.7178H24.7178V13.6816H23.7178ZM23.7178 17.042V18.042H24.1982V17.042V16.042H23.7178V17.042ZM24.1982 17.042H23.1982V17.5225H24.1982H25.1982V17.042H24.1982ZM24.1982 17.5225V16.5225H23.7178V17.5225V18.5225H24.1982V17.5225ZM23.7178 17.5225H22.7178V20.3994H23.7178H24.7178V17.5225H23.7178ZM23.7178 20.3994V21.3994H24.1982V20.3994V19.3994H23.7178V20.3994ZM24.1982 20.3994H23.1982V20.8799H24.1982H25.1982V20.3994H24.1982ZM26.1172 18V17H24.1982V18V19H26.1172V18ZM24.1982 18H25.1982V17.5225H24.1982H23.1982V18H24.1982ZM24.1982 17.5225V18.5225H25.6367V17.5225V16.5225H24.1982V17.5225ZM25.6367 17.5225H26.6367V17.042H25.6367H24.6367V17.5225H25.6367ZM25.6367 17.042V18.042H26.1172V17.042V16.042H25.6367V17.042ZM26.1172 17.042H27.1172V16.0811H26.1172H25.1172V17.042H26.1172ZM26.1172 16.0811V17.0811H26.5977V16.0811V15.0811H26.1172V16.0811ZM26.5977 16.0811H27.5977V14.6426H26.5977H25.5977V16.0811H26.5977ZM26.5977 14.6426V13.6426H26.1172V14.6426V15.6426H26.5977V14.6426ZM26.1172 14.6426H27.1172V13.6816H26.1172H25.1172V14.6426H26.1172ZM26.1172 13.6816V12.6816H25.6367V13.6816V14.6816H26.1172V13.6816ZM25.6367 13.6816H26.6367V13.2012H25.6367H24.6367V13.6816H25.6367ZM25.6367 13.2012V12.2012H24.1982V13.2012V14.2012H25.6367V13.2012ZM24.1982 13.2012H25.1982V12.7207H24.1982H23.1982V13.2012H24.1982ZM24.1982 12.7207V13.7207H26.1172V12.7207V11.7207H24.1982V12.7207ZM26.1172 12.7207H25.1172V13.2012H26.1172H27.1172V12.7207H26.1172ZM26.1172 13.2012V14.2012H26.5977V13.2012V12.2012H26.1172V13.2012ZM26.5977 13.2012H25.5977V13.6816H26.5977H27.5977V13.2012H26.5977ZM26.5977 13.6816V14.6816H27.0781V13.6816V12.6816H26.5977V13.6816ZM27.0781 13.6816H26.0781V14.6426H27.0781H28.0781V13.6816H27.0781ZM27.0781 14.6426V15.6426H27.5586V14.6426V13.6426H27.0781V14.6426ZM27.5586 14.6426H26.5586V16.0811H27.5586H28.5586V14.6426H27.5586ZM27.5586 16.0811V15.0811H27.0781V16.0811V17.0811H27.5586V16.0811ZM27.0781 16.0811H26.0781V17.042H27.0781H28.0781V16.0811H27.0781ZM27.0781 17.042V16.042H26.5977V17.042V18.042H27.0781V17.042ZM26.5977 17.042H25.5977V17.5225H26.5977H27.5977V17.042H26.5977ZM26.5977 17.5225V16.5225H26.1172V17.5225V18.5225H26.5977V17.5225ZM26.1172 17.5225H25.1172V18H26.1172H27.1172V17.5225H26.1172ZM32.3574 18V19H33.3574V18H32.3574ZM29.958 18H28.958V19H29.958V18ZM29.958 17.5225H30.958V16.5225H29.958V17.5225ZM29.4775 17.5225H28.4775V18.5225H29.4775V17.5225ZM29.4775 17.042H30.4775V16.042H29.4775V17.042ZM28.9971 17.042H27.9971V18.042H28.9971V17.042ZM28.9971 16.0811H29.9971V15.0811H28.9971V16.0811ZM28.5195 16.0811H27.5195V17.0811H28.5195V16.0811ZM28.5195 14.6426V13.6426H27.5195V14.6426H28.5195ZM28.9971 14.6426V15.6426H29.9971V14.6426H28.9971ZM28.9971 13.6816V12.6816H27.9971V13.6816H28.9971ZM29.4775 13.6816H30.4775V12.6816H29.4775V13.6816ZM29.4775 14.1621H28.4775V15.1621H29.4775V14.1621ZM32.3574 14.1621V15.1621H33.3574V14.1621H32.3574ZM32.3574 13.6816H33.3574V12.6816H32.3574V13.6816ZM31.877 13.6816H30.877V14.6816H31.877V13.6816ZM31.877 13.2012H32.877V12.2012H31.877V13.2012ZM29.958 13.2012H28.958V14.2012H29.958V13.2012ZM29.958 12.7207V11.7207H28.958V12.7207H29.958ZM32.3574 12.7207H33.3574V11.7207H32.3574V12.7207ZM32.3574 13.2012H31.3574V14.2012H32.3574V13.2012ZM32.8379 13.2012H33.8379V12.2012H32.8379V13.2012ZM32.8379 13.6816H31.8379V14.6816H32.8379V13.6816ZM33.3184 13.6816H34.3184V12.6816H33.3184V13.6816ZM33.3184 14.6426V15.6426H34.3184V14.6426H33.3184ZM29.4775 14.6426V13.6426H28.4775V14.6426H29.4775ZM29.4775 16.0811H28.4775V17.0811H29.4775V16.0811ZM29.958 16.0811H30.958V15.0811H29.958V16.0811ZM29.958 17.042H28.958V18.042H29.958V17.042ZM30.4385 17.042H31.4385V16.042H30.4385V17.042ZM30.4385 17.5225H29.4385V18.5225H30.4385V17.5225ZM32.3574 17.5225H33.3574V16.5225H32.3574V17.5225ZM29.958 13.6816V14.6816H30.958V13.6816H29.958ZM29.4775 13.6816H28.4775V14.6816H29.4775V13.6816ZM29.4775 13.2012V12.2012H28.4775V13.2012H29.4775ZM29.958 13.2012H30.958V12.2012H29.958V13.2012ZM33.3184 17.042V18.042H34.3184V17.042H33.3184ZM32.8379 17.042H31.8379V18.042H32.8379V17.042ZM32.8379 16.5615V15.5615H31.8379V16.5615H32.8379ZM33.3184 16.5615H34.3184V15.5615H33.3184V16.5615ZM32.8379 17.5225V18.5225H33.8379V17.5225H32.8379ZM32.3574 17.5225H31.3574V18.5225H32.3574V17.5225ZM32.3574 17.042V16.042H31.3574V17.042H32.3574ZM32.8379 17.042H33.8379V16.042H32.8379V17.042ZM32.3574 18V17H29.958V18V19H32.3574V18ZM29.958 18H30.958V17.5225H29.958H28.958V18H29.958ZM29.958 17.5225V16.5225H29.4775V17.5225V18.5225H29.958V17.5225ZM29.4775 17.5225H30.4775V17.042H29.4775H28.4775V17.5225H29.4775ZM29.4775 17.042V16.042H28.9971V17.042V18.042H29.4775V17.042ZM28.9971 17.042H29.9971V16.0811H28.9971H27.9971V17.042H28.9971ZM28.9971 16.0811V15.0811H28.5195V16.0811V17.0811H28.9971V16.0811ZM28.5195 16.0811H29.5195V14.6426H28.5195H27.5195V16.0811H28.5195ZM28.5195 14.6426V15.6426H28.9971V14.6426V13.6426H28.5195V14.6426ZM28.9971 14.6426H29.9971V13.6816H28.9971H27.9971V14.6426H28.9971ZM28.9971 13.6816V14.6816H29.4775V13.6816V12.6816H28.9971V13.6816ZM29.4775 13.6816H28.4775V14.1621H29.4775H30.4775V13.6816H29.4775ZM29.4775 14.1621V15.1621H32.3574V14.1621V13.1621H29.4775V14.1621ZM32.3574 14.1621H33.3574V13.6816H32.3574H31.3574V14.1621H32.3574ZM32.3574 13.6816V12.6816H31.877V13.6816V14.6816H32.3574V13.6816ZM31.877 13.6816H32.877V13.2012H31.877H30.877V13.6816H31.877ZM31.877 13.2012V12.2012H29.958V13.2012V14.2012H31.877V13.2012ZM29.958 13.2012H30.958V12.7207H29.958H28.958V13.2012H29.958ZM29.958 12.7207V13.7207H32.3574V12.7207V11.7207H29.958V12.7207ZM32.3574 12.7207H31.3574V13.2012H32.3574H33.3574V12.7207H32.3574ZM32.3574 13.2012V14.2012H32.8379V13.2012V12.2012H32.3574V13.2012ZM32.8379 13.2012H31.8379V13.6816H32.8379H33.8379V13.2012H32.8379ZM32.8379 13.6816V14.6816H33.3184V13.6816V12.6816H32.8379V13.6816ZM33.3184 13.6816H32.3184V14.6426H33.3184H34.3184V13.6816H33.3184ZM33.3184 14.6426V13.6426H29.4775V14.6426V15.6426H33.3184V14.6426ZM29.4775 14.6426H28.4775V16.0811H29.4775H30.4775V14.6426H29.4775ZM29.4775 16.0811V17.0811H29.958V16.0811V15.0811H29.4775V16.0811ZM29.958 16.0811H28.958V17.042H29.958H30.958V16.0811H29.958ZM29.958 17.042V18.042H30.4385V17.042V16.042H29.958V17.042ZM30.4385 17.042H29.4385V17.5225H30.4385H31.4385V17.042H30.4385ZM30.4385 17.5225V18.5225H32.3574V17.5225V16.5225H30.4385V17.5225ZM32.3574 17.5225H31.3574V18H32.3574H33.3574V17.5225H32.3574ZM29.958 13.6816V12.6816H29.4775V13.6816V14.6816H29.958V13.6816ZM29.4775 13.6816H30.4775V13.2012H29.4775H28.4775V13.6816H29.4775ZM29.4775 13.2012V14.2012H29.958V13.2012V12.2012H29.4775V13.2012ZM29.958 13.2012H28.958V13.6816H29.958H30.958V13.2012H29.958ZM33.3184 17.042V16.042H32.8379V17.042V18.042H33.3184V17.042ZM32.8379 17.042H33.8379V16.5615H32.8379H31.8379V17.042H32.8379ZM32.8379 16.5615V17.5615H33.3184V16.5615V15.5615H32.8379V16.5615ZM33.3184 16.5615H32.3184V17.042H33.3184H34.3184V16.5615H33.3184ZM32.8379 17.5225V16.5225H32.3574V17.5225V18.5225H32.8379V17.5225ZM32.3574 17.5225H33.3574V17.042H32.3574H31.3574V17.5225H32.3574ZM32.3574 17.042V18.042H32.8379V17.042V16.042H32.3574V17.042ZM32.8379 17.042H31.8379V17.5225H32.8379H33.8379V17.042H32.8379Z" fill="#2A2D2D" style="fill:#2A2D2D;fill:color(display-p3 0.1647 0.1765 0.1765);fill-opacity:1;" mask="url(#path-15-outside-1_1_84)"/>
<defs>
<clipPath id="clip0_1_84">
<rect width="17" height="18" fill="white" style="fill:white;fill-opacity:1;"/>
</clipPath>
<clipPath id="clip1_1_84">
<rect width="12" height="15" fill="white" style="fill:white;fill-opacity:1;" transform="translate(4.88229) rotate(15)"/>
</clipPath>
</defs>
</svg>
